<!-- Generated by IcoMoon.io -->
<svg version="1.1" xmlns="http://www.w3.org/2000/svg" width="32" height="32" viewBox="0 0 32 32">
<title>search</title>
<path d="M24.282 22.019l7.25 7.25c0.625 0.625 0.625 1.638 0 2.263s-1.638 0.625-2.263 0l-7.25-7.25c-2.316 1.828-5.24 2.918-8.419 2.918-7.511 0-13.6-6.089-13.6-13.6s6.089-13.6 13.6-13.6c7.511 0 13.6 6.089 13.6 13.6 0 3.179-1.091 6.103-2.918 8.419zM21.056 20.851c1.822-1.873 2.944-4.431 2.944-7.251 0-5.744-4.656-10.4-10.4-10.4s-10.4 4.656-10.4 10.4c0 5.744 4.656 10.4 10.4 10.4 2.82 0 5.377-1.122 7.251-2.944 0.031-0.037 0.063-0.072 0.098-0.107s0.070-0.067 0.107-0.098z"></path>
</svg>
